<svg aria-hidden="true" style="position: absolute; width: 0; height: 0; overflow: hidden;" version="1.1" xmlns="http://www.w3.org/2000/svg" xmlns:xlink="http://www.w3.org/1999/xlink">
<defs>
<symbol id="icon-shopping" viewBox="0 0 32 32">
<path d="M16 0c5.198 0 9.412 4.214 9.412 9.412v3.765h1.882c2.079 0 3.765 1.686 3.765 3.765v11.294c0 2.079-1.686 3.765-3.765 3.765h-22.588c-2.079 0-3.765-1.686-3.765-3.765v-11.294c0-2.079 1.686-3.765 3.765-3.765h1.882v-3.765c0-5.198 4.214-9.412 9.412-9.412zM16 3.765c-3.119 0-5.647 2.528-5.647 5.647v3.765h11.294v-3.765c0-3.119-2.528-5.647-5.647-5.647z"></path>
</symbol>
<symbol id="icon-game" viewBox="0 0 32 32">
<path fill="#000" style="fill: var(--color1, #000)" opacity="0.3" d="M17.265 12.422l-2.53-0.843c1.020-3.059 2.655-4.967 4.942-5.539 1.19-0.298 2.99-2.214 2.99-3.373h2.667c0 2.396-2.645 5.369-5.010 5.96-1.269 0.317-2.3 1.52-3.058 3.795z"></path>
<path fill="#000" style="fill: var(--color1, #000)" d="M17.676 22.667c1.345 1.629 3.38 2.667 5.657 2.667 4.050 0 7.333-3.283 7.333-7.333 0-3.279-2.152-6.055-5.12-6.993-0.354-0.216-0.769-0.34-1.213-0.34h-16.667c-0.444 0-0.86 0.124-1.213 0.34-2.968 0.939-5.12 3.715-5.12 6.993 0 4.050 3.283 7.333 7.333 7.333 2.277 0 4.312-1.038 5.657-2.667h3.352zM6.667 13.667c0-0.184 0.149-0.333 0.333-0.333h2c0.184 0 0.333 0.149 0.333 0.333v2c0 0.184-0.149 0.333-0.333 0.333h-2c-0.184 0-0.333-0.149-0.333-0.333v-2zM9.667 16c-0.184 0-0.333 0.149-0.333 0.333v2c0 0.184 0.149 0.333 0.333 0.333h2c0.184 0 0.333-0.149 0.333-0.333v-2c0-0.184-0.149-0.333-0.333-0.333h-2zM25.333 16c0.736 0 1.333-0.597 1.333-1.333s-0.597-1.333-1.333-1.333c-0.736 0-1.333 0.597-1.333 1.333s0.597 1.333 1.333 1.333zM25.333 18.667c0 0.736-0.597 1.333-1.333 1.333s-1.333-0.597-1.333-1.333c0-0.736 0.597-1.333 1.333-1.333s1.333 0.597 1.333 1.333zM6.667 19c0-0.184 0.149-0.333 0.333-0.333h2c0.184 0 0.333 0.149 0.333 0.333v2c0 0.184-0.149 0.333-0.333 0.333h-2c-0.184 0-0.333-0.149-0.333-0.333v-2zM4.333 16c-0.184 0-0.333 0.149-0.333 0.333v2c0 0.184 0.149 0.333 0.333 0.333h2c0.184 0 0.333-0.149 0.333-0.333v-2c0-0.184-0.149-0.333-0.333-0.333h-2z"></path>
</symbol>
<symbol id="icon-food" viewBox="0 0 32 32">
<path fill="#000" style="fill: var(--color1, #000)" d="M16 12c0 1.473-1.194 2.667-2.667 2.667h-4c-1.473 0-2.667-1.194-2.667-2.667v-8h1.333l0.607 6.066c0.034 0.341 0.321 0.6 0.663 0.6h0.126c0.342 0 0.629-0.26 0.663-0.6l0.607-6.066h1.333l0.607 6.066c0.034 0.341 0.321 0.6 0.663 0.6h0.126c0.342 0 0.629-0.26 0.663-0.6l0.607-6.066h1.333v8z"></path>
<path fill="#000" style="fill: var(--color1, #000)" opacity="0.3" d="M10.441 17.333h1.784c0.552 0 1 0.448 1 1v10c0 0.552-0.448 1-1 1h-1.784c-0.552 0-1-0.448-1-1v-10c0-0.552 0.448-1 1-1z"></path>
<path fill="#000" style="fill: var(--color1, #000)" opacity="0.3" d="M22.454 20h1.758c0.552 0 1 0.448 1 1v7.333c0 0.552-0.448 1-1 1h-1.758c-0.552 0-1-0.448-1-1v-7.333c0-0.552 0.448-1 1-1z"></path>
<path fill="#000" style="fill: var(--color1, #000)" d="M25.333 4v13.333h-5.333v-8c0-2.946 2.388-5.333 5.333-5.333z"></path>
</symbol>
<symbol id="icon-contacts" viewBox="0 0 32 32">
<path fill="#000" style="fill: var(--color1, #000)" d="M10.667 7.18c0-0.242 0.25-0.403 0.47-0.304l19.599 8.82c0.262 0.118 0.262 0.49 0 0.608l-19.599 8.82c-0.221 0.099-0.47-0.062-0.47-0.304v-7.264l16.596-1.556-16.596-1.556v-7.264z"></path>
<path fill="#000" style="fill: var(--color1, #000)" opacity="0.3" d="M5 8c-0.552 0-1 0.448-1 1v0.667c0 0.552 0.448 1 1 1h2c0.552 0 1-0.448 1-1v-0.667c0-0.552-0.448-1-1-1h-2zM0 15.667c0-0.552 0.448-1 1-1h6c0.552 0 1 0.448 1 1v0.667c0 0.552-0.448 1-1 1h-6c-0.552 0-1-0.448-1-1v-0.667zM4 22.333c0-0.552 0.448-1 1-1h2c0.552 0 1 0.448 1 1v0.667c0 0.552-0.448 1-1 1h-2c-0.552 0-1-0.448-1-1v-0.667z"></path>
</symbol>
<symbol id="icon-clothes" viewBox="0 0 32 32">
<path d="M21.553 5.333c-0.525 1.617-2.812 2.833-5.553 2.833s-5.028-1.217-5.553-2.833h-0.854c-0.202-0.255-0.565-0.33-0.855-0.162l-0.281 0.162h-0.456c-0.362 0-0.657 0.288-0.666 0.648l-6.030 3.481c-0.319 0.184-0.428 0.592-0.244 0.911l2.875 4.98c0.184 0.319 0.592 0.428 0.911 0.244l2.488-1.436v13.173c0 0.368 0.298 0.667 0.667 0.667h16c0.368 0 0.667-0.298 0.667-0.667v-13.174l2.489 1.437c0.319 0.184 0.727 0.075 0.911-0.244l2.875-4.98c0.184-0.319 0.075-0.727-0.244-0.911l-6.031-3.482c-0.010-0.359-0.305-0.647-0.666-0.647h-0.455l-0.281-0.162c-0.29-0.167-0.653-0.092-0.855 0.162h-0.855z"></path>
</symbol>
<symbol id="icon-salary" viewBox="0 0 32 32">
<path fill="#000" style="fill: var(--color1, #000)" opacity="0.3" d="M27.333 18.667c1.105 0 2-0.895 2-2s-0.895-2-2-2c-1.105 0-2 0.895-2 2s0.895 2 2 2z"></path>
<path fill="#000" style="fill: var(--color1, #000)" opacity="0.3" d="M3.845 7.092l21.894-5.867c0.356-0.095 0.721 0.116 0.817 0.471l2.071 7.727c0.095 0.356-0.116 0.721-0.471 0.816l-21.894 5.867c-0.356 0.095-0.721-0.116-0.816-0.471l-2.071-7.727c-0.095-0.356 0.116-0.721 0.471-0.816z"></path>
<path fill="#000" style="fill: var(--color1, #000)" d="M4 5.333c-0.736 0-1.333 0.597-1.333 1.333v18.667c0 0.736 0.597 1.333 1.333 1.333h24c0.736 0 1.333-0.597 1.333-1.333v-4.449c-0.606 0.288-1.284 0.449-2 0.449-2.577 0-4.667-2.089-4.667-4.667s2.089-4.667 4.667-4.667c0.716 0 1.394 0.161 2 0.449v-5.782c0-0.736-0.597-1.333-1.333-1.333h-24z"></path>
</symbol>
<symbol id="icon-quill" viewBox="0 0 32 32">
<path d="M0 32c4-12 14.469-32 32-32-8.219 6.594-12 22-18 22s-6 0-6 0l-6 10h-2z"></path>
</symbol>
<symbol id="icon-books" viewBox="0 0 36 32">
<path d="M7 4h-6c-0.55 0-1 0.45-1 1v22c0 0.55 0.45 1 1 1h6c0.55 0 1-0.45 1-1v-22c0-0.55-0.45-1-1-1zM6 10h-4v-2h4v2z"></path>
<path d="M17 4h-6c-0.55 0-1 0.45-1 1v22c0 0.55 0.45 1 1 1h6c0.55 0 1-0.45 1-1v-22c0-0.55-0.45-1-1-1zM16 10h-4v-2h4v2z"></path>
<path d="M23.909 5.546l-5.358 2.7c-0.491 0.247-0.691 0.852-0.443 1.343l8.999 17.861c0.247 0.491 0.852 0.691 1.343 0.443l5.358-2.7c0.491-0.247 0.691-0.852 0.443-1.343l-8.999-17.861c-0.247-0.491-0.852-0.691-1.343-0.443z"></path>
</symbol>
<symbol id="icon-library" viewBox="0 0 34 32">
<path d="M32 30v-2h-2v-12h2v-2h-6v2h2v12h-6v-12h2v-2h-6v2h2v12h-6v-12h2v-2h-6v2h2v12h-6v-12h2v-2h-6v2h2v12h-2v2h-2v2h34v-2h-2z"></path>
<path d="M16 0h2l16 10v2h-34v-2l16-10z"></path>
</symbol>
<symbol id="icon-wrench" viewBox="0 0 32 32">
<path d="M31.342 25.559l-14.392-12.336c0.67-1.259 1.051-2.696 1.051-4.222 0-4.971-4.029-9-9-9-0.909 0-1.787 0.135-2.614 0.386l5.2 5.2c0.778 0.778 0.778 2.051 0 2.828l-3.172 3.172c-0.778 0.778-2.051 0.778-2.828 0l-5.2-5.2c-0.251 0.827-0.386 1.705-0.386 2.614 0 4.971 4.029 9 9 9 1.526 0 2.963-0.38 4.222-1.051l12.336 14.392c0.716 0.835 1.938 0.882 2.716 0.104l3.172-3.172c0.778-0.778 0.731-2-0.104-2.716z"></path>
</symbol>
<symbol id="icon-pharmacy" viewBox="0 0 32 32">
<path d="M28 8h-6v-4c0-1.1-0.9-2-2-2h-8c-1.1 0-2 0.9-2 2v4h-6c-2.2 0-4 1.8-4 4v16c0 2.2 1.8 4 4 4h24c2.2 0 4-1.8 4-4v-16c0-2.2-1.8-4-4-4zM12 4h8v4h-8v-4zM24 22h-6v6h-4v-6h-6v-4h6v-6h4v6h6v4z"></path>
</symbol>
<symbol id="icon-air" viewBox="0 0 32 32">
<path d="M24 19.999l-5.713-5.713 13.713-10.286-4-4-17.141 6.858-5.397-5.397c-1.556-1.556-3.728-1.928-4.828-0.828s-0.727 3.273 0.828 4.828l5.396 5.396-6.858 17.143 4 4 10.287-13.715 5.713 5.713v7.999h4l2-6 6-2v-4l-7.999 0z"></path>
</symbol>
<symbol id="icon-transport" viewBox="0 0 32 32">
<path d="M32 18l-4-8h-6v-4c0-1.1-0.9-2-2-2h-18c-1.1 0-2 0.9-2 2v16l2 2h2.536c-0.341 0.588-0.536 1.271-0.536 2 0 2.209 1.791 4 4 4s4-1.791 4-4c0-0.729-0.196-1.412-0.536-2h11.073c-0.341 0.588-0.537 1.271-0.537 2 0 2.209 1.791 4 4 4s4-1.791 4-4c0-0.729-0.196-1.412-0.537-2h2.537v-6zM22 18v-6h4.146l3 6h-7.146z"></path>
</symbol>
<symbol id="icon-scissors" viewBox="0 0 32 32">
<path d="M28.557 21.24c-2.084-3.256-5.659-4.689-7.985-3.201-0.201 0.129-0.385 0.275-0.555 0.437l-2.483-3.883 5.733-8.999c0.469-0.867 0.642-1.899 0.415-2.937-0.218-0.992-0.766-1.826-1.503-2.413l-0.384-0.244-6.796 10.629-6.796-10.629-0.384 0.244c-0.737 0.587-1.285 1.421-1.503 2.413-0.228 1.038-0.055 2.070 0.415 2.937l5.733 8.999-2.483 3.883c-0.169-0.162-0.354-0.308-0.554-0.437-2.326-1.488-5.901-0.055-7.985 3.201s-1.887 7.103 0.438 8.591c2.326 1.488 5.901 0.055 7.985-3.201l5.134-8.058 5.134 8.058c2.084 3.256 5.659 4.689 7.985 3.201s2.522-5.335 0.438-8.591zM7.339 25.013c-0.938 1.466-2.142 2.179-2.955 2.358-0 0-0 0-0 0-0.265 0.058-0.634 0.094-0.885-0.067-0.278-0.178-0.463-0.648-0.494-1.259-0.050-0.989 0.301-2.151 0.965-3.189 0.938-1.466 2.142-2.179 2.955-2.358 0.266-0.058 0.635-0.094 0.886 0.066 0.278 0.178 0.463 0.648 0.494 1.259 0.051 0.989-0.301 2.151-0.965 3.189zM15 16c-0.552 0-1-0.448-1-1s0.448-1 1-1 1 0.448 1 1-0.448 1-1 1zM26.995 26.046c-0.031 0.61-0.216 1.081-0.494 1.259-0.251 0.161-0.62 0.125-0.885 0.067 0 0 0 0-0 0-0.814-0.179-2.017-0.892-2.955-2.358-0.664-1.037-1.016-2.2-0.965-3.189 0.031-0.61 0.216-1.081 0.494-1.259 0.251-0.16 0.62-0.125 0.886-0.066 0.814 0.179 2.017 0.892 2.955 2.358 0.664 1.037 1.016 2.2 0.965 3.189z"></path>
</symbol>
</defs>
</svg>
